<?xml version="1.0" encoding="utf-8"?>
<!-- Generator: Adobe Illustrator 25.4.1, SVG Export Plug-In . SVG Version: 6.00 Build 0)  -->
<svg version="1.1" xmlns="http://www.w3.org/2000/svg" xmlns:xlink="http://www.w3.org/1999/xlink" x="0px" y="0px"
	 viewBox="0 0 192.29 46.56" style="enable-background:new 0 0 192.29 46.56;" xml:space="preserve">
<style type="text/css">
	.st0{fill:#010202;}
</style>
<g id="Layer_1">
	<g>
		<path class="st0" d="M6.1,24.93c2.4,0,4.41-0.68,6.04-2.03c1.62-1.35,2.44-3.01,2.44-4.97c0-1.83-1.33-3.44-3.99-4.83
			c-2.66-1.39-3.99-2.69-3.99-3.89c0-1.36,0.5-2.42,1.49-3.17c1-0.75,2.33-1.13,3.99-1.13c0.66,0,1.29,0.05,1.9,0.16
			c0.61,0.11,1.22,0.26,1.82,0.45l0.37-2.05c-0.9-0.19-1.56-0.31-1.97-0.35c-0.41-0.04-1.09-0.06-2.05-0.06
			c-2.16,0-3.99,0.62-5.49,1.86c-1.5,1.24-2.25,2.82-2.25,4.73c0,1.88,1.31,3.48,3.93,4.79c2.62,1.31,3.93,2.63,3.93,3.97
			c0,1.34-0.51,2.44-1.54,3.3C9.72,22.57,8.31,23,6.5,23c-0.71,0-1.46-0.09-2.25-0.27c-0.79-0.18-1.46-0.39-2.01-0.63L1.8,24.36
			c0.68,0.19,1.35,0.33,2.01,0.43C4.46,24.88,5.22,24.93,6.1,24.93z"/>
		<path class="st0" d="M24.46,23.62c1.23,1.03,3.11,1.55,5.59,1.55c2.91,0,5.29-0.79,7.06-2.33c1.77-1.55,2.9-3.67,3.38-6.31
			L43,3.06l-2.63,0.01l-2.44,13.09c-0.86,4.54-3.38,6.75-7.69,6.75c-3.35,0-4.97-1.29-4.97-3.96c0-0.45,0.05-0.95,0.16-1.48
			l2.76-14.42l-2.64,0.01l-2.75,14.16c-0.08,0.5-0.13,0.85-0.16,1.05c-0.03,0.21-0.04,0.51-0.04,0.91
			C22.59,21.09,23.22,22.58,24.46,23.62z"/>
		<path class="st0" d="M52.77,17.08c0.3,0.03,0.58,0.05,0.84,0.06c0.39,0.01,0.73,0.02,1.04,0.02c3.03,0,5.52-0.84,7.41-2.49
			c1.9-1.67,2.87-3.79,2.87-6.29c0-1.76-0.65-3.15-1.94-4.13c-1.24-0.95-2.91-1.43-4.95-1.43h-5.74l-4.2,22.33l3.14-0.01
			L52.77,17.08z M53.3,14.26l1.63-8.68l2.37,0c3.89,0,4.34,1.73,4.34,3.04c0,1.52-0.55,2.84-1.69,4.03
			c-1.11,1.17-2.79,1.76-4.99,1.76C54.41,14.4,53.85,14.35,53.3,14.26z"/>
		<polygon class="st0" points="80.85,22.13 72.31,22.13 73.64,15.28 81.8,15.28 82.41,12.02 74.27,12.02 75.44,5.82 84.03,5.82 
			84.56,2.56 72.33,2.56 67.99,25.39 80.25,25.39 		"/>
		<path class="st0" d="M92.98,17.3l5.42,8.34l5.17,0.01l-6.4-9.39l-0.49-0.69c1.74-0.25,3.33-0.87,4.76-1.84
			c2.04-1.39,3.08-3.38,3.08-5.93c0-1.64-0.63-2.99-1.88-4.02c-1.21-0.99-2.98-1.47-5.43-1.47h-5.62l-4.39,23.33l4.16-0.02
			L92.98,17.3z M95.15,12.1c-0.56,0-0.93-0.01-1.18-0.02l1.17-6.06c0.49-0.04,1.07-0.06,1.74-0.06c1.26,0,2.2,0.21,2.72,0.6
			c0.46,0.34,0.67,0.8,0.67,1.44c0,1.21-0.43,2.17-1.3,2.92C98.06,11.7,96.78,12.1,95.15,12.1z"/>
		<path class="st0" d="M116.21,11.68l2.14,14.22l4.31-0.01l7.64-14.22l-0.74,14.22h4.76l1.19-23.83l-4.96,0.01L122,17.89
			c-0.03,0.05-0.06,0.1-0.08,0.15l-2.45-15.98h-4.64l-7.91,23.83l4.81-0.01L116.21,11.68z"/>
		<polygon class="st0" points="150.54,1.82 145.28,1.8 140.74,26.14 145.96,26.14 		"/>
		<path class="st0" d="M161.06,12.25c0.02-0.11,0.04-0.24,0.06-0.37l6.8,14.51h5.18l4.72-24.82l-5.78-0.02l-2.17,11.93
			c-0.17,0.98-0.36,1.83-0.54,2.55L162.6,1.58l-5.17-0.02l-4.67,24.84l5.64,0L161.06,12.25z"/>
		<polygon class="st0" points="190.44,1.32 184.16,1.3 179.44,26.64 185.68,26.64 		"/>
	</g>
</g>
<g id="Layer_2">
	<g>
		<path d="M103.35,44.96l-0.4-2.06H98.7l-1.17,2.06l-1.38,0l5.33-9.24h1.49l1.78,9.24L103.35,44.96z M102.2,38.71
			c-0.06-0.29-0.12-0.58-0.16-0.84c-0.04-0.27-0.07-0.51-0.07-0.74c-0.14,0.26-0.31,0.57-0.51,0.94c-0.2,0.37-0.32,0.59-0.37,0.66
			l-1.81,3.17h3.49L102.2,38.71z"/>
		<path d="M110.53,40.76l0.62,0.94l2.06,3.27l-1.61,0l-2.45-4.14l-0.81,4.14l-1.3,0l1.74-9.27h2.42c0.96,0,1.67,0.19,2.14,0.57
			s0.7,0.87,0.7,1.47c0,0.95-0.35,1.69-1.07,2.22C112.26,40.49,111.44,40.76,110.53,40.76z M110.92,36.69
			c-0.4,0-0.74,0.03-1.01,0.09l-0.61,3.14c0.05,0,0.13,0,0.25,0c0.12,0,0.34,0,0.68,0c0.72,0,1.3-0.19,1.74-0.58
			c0.44-0.38,0.66-0.87,0.66-1.45c0-0.38-0.14-0.68-0.41-0.89C111.95,36.79,111.51,36.69,110.92,36.69z"/>
		<path d="M123.16,37.11c-0.69-0.25-1.36-0.37-2.03-0.37c-1.31,0-2.32,0.52-3.01,1.55c-0.69,1.03-1.04,2.11-1.04,3.24
			c0,0.72,0.21,1.3,0.62,1.73c0.42,0.43,1.05,0.64,1.92,0.64c0.89,0,1.7-0.16,2.43-0.48l-0.18,1.21c-0.43,0.15-0.84,0.27-1.24,0.35
			c-0.4,0.08-0.83,0.12-1.28,0.12c-1.24,0-2.17-0.29-2.77-0.88c-0.6-0.59-0.91-1.38-0.91-2.37c0-1.66,0.49-3.11,1.46-4.35
			c0.98-1.24,2.35-1.87,4.13-1.87c0.82,0,1.54,0.09,2.17,0.26L123.16,37.11z"/>
		<path d="M132.03,44.97l-1.34,0l0.8-4.19h-4.88l-0.81,4.19l-1.3,0l1.76-9.23l1.32,0l-0.73,3.89h4.88l0.72-3.89l1.34,0L132.03,44.97
			z"/>
		<path d="M136.95,44.97l-1.3,0l1.74-9.23l1.32,0L136.95,44.97z"/>
		<path d="M147.43,36.85h-2.74l-1.55,8.12l-1.34,0l1.54-8.12h-2.69l0.2-1.12h6.77L147.43,36.85z"/>
		<path d="M154.53,36.78h-3.6l-0.54,2.91h3.41l-0.19,1.03h-3.42l-0.62,3.16h3.59l-0.2,1.08h-4.92l1.76-9.24h4.92L154.53,36.78z"/>
		<path d="M159.72,40.24l3.11,4.73l-1.72,0.01l-2.84-4.58l-0.9,4.57l-1.3,0l1.76-9.23l1.32,0l-0.81,4.32l4.44-4.32l1.74,0
			L159.72,40.24z"/>
		<path d="M172.15,36.85h-2.74l-1.55,8.12l-1.34,0l1.54-8.12h-2.69l0.2-1.12h6.77L172.15,36.85z"/>
		<path d="M179.26,36.78h-3.6l-0.54,2.91h3.41l-0.19,1.03h-3.42l-0.62,3.16h3.59l-0.2,1.08h-4.92l1.76-9.24h4.92L179.26,36.78z"/>
		<path d="M188.5,44.97h-1.67l-2.63-5.79c-0.31-0.65-0.55-1.27-0.72-1.86l-0.42,2.41l-0.99,5.24l-1.26,0l1.74-9.24l1.67,0l2.6,5.72
			c0.13,0.28,0.28,0.63,0.45,1.04c0.17,0.41,0.28,0.69,0.33,0.84c0.07-0.49,0.14-0.92,0.21-1.31s0.18-1.04,0.35-1.94l0.81-4.35
			l1.3,0L188.5,44.97z"/>
	</g>
</g>
</svg>
